# xmcd
#
# Track frame offsets: 
#        150
#        18725
#        36445
#        94730
#        127065
#        167986
#        196205
#        220082
#        236674
#
# Disc length: 3391 seconds
#
# Revision: 0
# Processed by: cddbd v1.5.2PL0 Copyright (c) Steve Scherf et al.
# Submitted via: ExactAudioCopyFreeDBPlugin 1.0
#
DISCID=810d3d09
DTITLE=Bartek Przytula - Lans Pack Premium
DYEAR=2013
DGENRE=Blues
TTITLE0=Blue Genesis- Przytula&Kruk - Dust my Broom
TTITLE1=Blue Genesis- Przytula&Kruk - Can't Be Satisfied
TTITLE2=Harris Katharsis- Bartek Przytula Quartett - Very Superstitiou
TTITLE2=s
TTITLE3=Harris Katharsis- Bartek Przytula Quartett - One Love
TTITLE4=Harris Katharsis- Bartek Przytula Quartett - Let Me Play My Mu
TTITLE4=sic
TTITLE5=P&K Gotta Brand New Band-Gruff - Me And The Devil
TTITLE6=P&K Gotta Brand New Band-Gruff - Preaching Blues
TTITLE7=K. Pietras, B. Przytula - Peolple Started Dancin'
TTITLE8=K. Pietras, B. Przytula - Wloz Inne Spodnie Mala
EXTD=
EXTT0=
EXTT1=
EXTT2=
EXTT3=
EXTT4=
EXTT5=
EXTT6=
EXTT7=
EXTT8=
PLAYORDER=
